<svg width="192" height="192" viewBox="0 0 192 192" fill="none" xmlns="http://www.w3.org/2000/svg">
  <!-- Background -->
  <rect width="192" height="192" rx="24" fill="#4A90E2"/>
  
  <!-- Sun Circle -->
  <circle cx="96" cy="72" r="28" fill="#FFE55C"/>
  
  <!-- Sun Rays -->
  <g stroke="#FFE55C" stroke-width="4" stroke-linecap="round">
    <line x1="96" y1="24" x2="96" y2="32"/>
    <line x1="96" y1="112" x2="96" y2="120"/>
    <line x1="48" y1="72" x2="56" y2="72"/>
    <line x1="136" y1="72" x2="144" y2="72"/>
    <line x1="68.7" y1="44.7" x2="74.1" y2="50.1"/>
    <line x1="117.9" y1="93.9" x2="123.3" y2="99.3"/>
    <line x1="68.7" y1="99.3" x2="74.1" y2="93.9"/>
    <line x1="117.9" y1="50.1" x2="123.3" y2="44.7"/>
  </g>
  
  <!-- Cloud -->
  <path d="M56 120c-8.8 0-16-7.2-16-16s7.2-16 16-16c1.6-8.8 9.2-16 18.4-16s16.8 7.2 18.4 16c8.8 0 16 7.2 16 16s-7.2 16-16 16H56z" fill="white" opacity="0.9"/>
  
  <!-- Location Pin -->
  <path d="M144 136c0 8.8-7.2 16-16 16s-16-7.2-16-16c0-8.8 7.2-16 16-16s16 7.2 16 16z" fill="#7CB342"/>
  <circle cx="128" cy="136" r="6" fill="white"/>
  
  <!-- Text -->
  <text x="96" y="180" font-family="Arial, sans-serif" font-size="14" font-weight="600" text-anchor="middle" fill="white">Nice Weather</text>
</svg>