<svg xmlns="http://www.w3.org/2000/svg" width="100" height="100" viewBox="0 0 100 100">
  <g transform="translate(50, 50)">
    <!-- Petals arranged in radial pattern (10 petals, every 36 degrees) -->
    <!-- Using path elements for voluptuous angular petals -->
    <path d="M 0,-5 L -6,-18 L 0,-30 L 6,-18 Z" fill="#9d88c7" transform="rotate(0)"/>
    <path d="M 0,-5 L -6,-18 L 0,-30 L 6,-18 Z" fill="#9d88c7" transform="rotate(36)"/>
    <path d="M 0,-5 L -6,-18 L 0,-30 L 6,-18 Z" fill="#9d88c7" transform="rotate(72)"/>
    <path d="M 0,-5 L -6,-18 L 0,-30 L 6,-18 Z" fill="#9d88c7" transform="rotate(108)"/>
    <path d="M 0,-5 L -6,-18 L 0,-30 L 6,-18 Z" fill="#9d88c7" transform="rotate(144)"/>
    <path d="M 0,-5 L -6,-18 L 0,-30 L 6,-18 Z" fill="#9d88c7" transform="rotate(180)"/>
    <path d="M 0,-5 L -6,-18 L 0,-30 L 6,-18 Z" fill="#9d88c7" transform="rotate(216)"/>
    <path d="M 0,-5 L -6,-18 L 0,-30 L 6,-18 Z" fill="#9d88c7" transform="rotate(252)"/>
    <path d="M 0,-5 L -6,-18 L 0,-30 L 6,-18 Z" fill="#9d88c7" transform="rotate(288)"/>
    <path d="M 0,-5 L -6,-18 L 0,-30 L 6,-18 Z" fill="#9d88c7" transform="rotate(324)"/>
  </g>
</svg>