
        <svg xmlns="http://www.w3.org/2000/svg" xmlns:xlink="http://www.w3.org/1999/xlink" version="1.1" width="3162.1621621621625" 
        height="701.5783498953057" viewBox="0 0 3162.1621621621625 701.5783498953057">
			
			<g transform="scale(8.108108108108109) translate(10, 10)">
				<defs id="SvgjsDefs1041"></defs><g id="SvgjsG1042" featureKey="symbolFeature-0" transform="matrix(0.7777777777777779,0,0,0.7777777777777779,14.11111111111111,-5.624888790978327)" fill="#856da6"><path xmlns="http://www.w3.org/2000/svg" d="M28.253,44.949l11.361,4.612c0.18,0.186,0.319,0.364,0.419,0.531c-0.098,0.161-0.233,0.331-0.406,0.51  c-1.852,0.76-6.214,2.555-11.21,4.615C21.709,56.358,13.063,55.739,5,50.169C12.99,44.572,21.564,43.868,28.253,44.949  L28.253,44.949z M13.497,76.581c9.402-0.161,16.575-4.323,21.379-8.94c2.726-4.366,5.342-8.541,7.158-11.469  c0.003-0.065,0.002-0.127,0-0.187c-0.185-0.112-0.433-0.202-0.742-0.265l-12.288,3.059C23.019,61.869,16.623,67.461,13.497,76.581  L13.497,76.581z M38.948,68.039l7.051-8.164c0.349-0.196,0.661-0.322,0.927-0.379c0.112,0.147,0.221,0.326,0.328,0.537  c0.237,3.191,0.543,7.536,0.87,12.121c-1.004,6.705-4.268,14.676-12,20.59C33.142,82.888,35.549,74.105,38.948,68.039L38.948,68.039  z M63.949,92.768c-8.004-5.984-11.32-14.153-12.297-20.947l0.988-11.924c0.12-0.208,0.244-0.378,0.369-0.507  c0.122,0.028,0.254,0.071,0.395,0.129l8.349,9.813C64.791,75.336,66.708,83.586,63.949,92.768L63.949,92.768z M64.106,66.492  c4.758,4.927,12.227,9.619,22.208,9.794c-3.219-9.143-9.739-14.699-15.789-17.738l-12.188-2.933  c-0.124,0.026-0.235,0.056-0.339,0.09c-0.048,0.273-0.033,0.626,0.047,1.047C59.305,58.767,61.574,62.411,64.106,66.492  L64.106,66.492z M95,49.9c-7.885,5.595-16.352,6.397-23.032,5.396c-5.098-2.071-9.697-3.931-11.901-4.816  c-0.142-0.159-0.253-0.311-0.336-0.455c0.079-0.137,0.185-0.281,0.319-0.432l12.034-4.902C78.737,43.68,87.144,44.434,95,49.9  L95,49.9z M70.341,41.568c6.09-3.034,12.7-8.652,15.909-17.947c-9.546,0.171-16.793,4.468-21.59,9.17l-6.897,11.141  c-0.004,0.078-0.004,0.151-0.003,0.221c0.194,0.114,0.455,0.205,0.781,0.267C61.045,43.806,65.462,42.741,70.341,41.568  L70.341,41.568z M63.844,7.232c2.875,9.443,0.81,17.891-2.359,23.936c-3.234,3.798-6.158,7.238-7.82,9.208  c-0.295,0.149-0.561,0.245-0.79,0.288c-0.094-0.119-0.187-0.261-0.277-0.425c-0.14-2.065-0.472-7.104-0.855-12.83  C52.85,20.766,56.189,12.999,63.844,7.232L63.844,7.232z M48.158,27.538l-0.966,12.7c-0.118,0.198-0.238,0.361-0.361,0.486  c-0.12-0.028-0.25-0.071-0.388-0.128c-1.292-1.541-4.601-5.508-8.368-10.012c-2.959-6.013-4.773-14.219-1.977-23.315  C43.774,13.082,47.089,20.893,48.158,27.538L48.158,27.538z M13.659,23.675c3.21,9.246,9.806,14.85,15.889,17.895  c5.43,1.321,10.127,2.467,11.896,2.901c0.137-0.026,0.259-0.059,0.372-0.095c0.048-0.281,0.028-0.646-0.056-1.08l-6.023-9.74  C31.012,28.622,23.593,23.917,13.659,23.675z" style="fill-rule: evenodd; clip-rule: evenodd;"></path></g><g id="SvgjsG1043" featureKey="nameFeature-0" transform="matrix(0.9870556950875071,0,0,0.9870556950875071,87.24315346056453,-4.948003907755288)" fill="#7d60a6"><path d="M2.793 10.390999999999998 l11.973 0 q1.9921875 0 3.662109375 0.517578125 t2.8906 1.5234 t1.8945 2.5098 t0.67383 3.457 q0 1.62109375 -0.6640625 3.056640625 t-1.875 2.5098 t-2.9004 1.6992 t-3.7598 0.625 l-5.2539 0 l0 10.352 l2.9688 0 l0 3.3594 l-9.6094 0 l0 -3.3594 l2.8125 0 l0 -22.871 l-2.8125 0 l0 -3.3789 z M9.4336 13.77 l0 9.3164 l5.332 0 q1.11328125 0 2.041015625 -0.302734375 t1.6016 -0.88867 t1.0547 -1.4648 t0.38086 -2.0313 q0 -2.1875 -1.328125 -3.408203125 t-4.2383 -1.2207 l-4.8438 0 z M41.347750000000005 24.043 l-3.7109 0 l0 -1.25 q-0.64453125 0 -1.318359375 0.244140625 t-1.2598 0.74219 t-1.0254 1.2695 t-0.63477 1.8262 l0 9.7656 l3.4375 0 l0 3.3594 l-10.039 0 l0 -3.3594 l2.793 0 l0.019531 -13.516 l-2.8125 0 l0 -3.3594 l6.4648 0 l0 2.793 q0.3515625 -0.625 0.791015625 -1.162109375 t0.97656 -0.9375 t1.1914 -0.625 t1.416 -0.22461 l1.9141 0 t1.7969 0.039063 l0 4.3945 z M57.44175 38.125 q-1.15234375 1.07421875 -2.548828125 1.7578125 t-3.1738 0.68359 q-1.484375 0 -2.724609375 -0.46875 t-2.1387 -1.2793 t-1.3965 -1.8848 t-0.49805 -2.2852 q0 -1.2890625 0.380859375 -2.28515625 t1.0156 -1.7285 t1.4844 -1.2305 t1.7773 -0.80078 t1.8945 -0.42969 t1.8457 -0.12695 q1.40625 0 2.36328125 0.087890625 t1.7383 0.24414 l0.019531 -1.6602 q0 -1.07421875 -0.3125 -1.865234375 t-0.87891 -1.3086 t-1.3574 -0.77148 t-1.7676 -0.25391 q-0.91796875 0 -1.7578125 0.126953125 t-1.5723 0.33203 t-1.3477 0.46875 t-1.0449 0.55664 l-1.1914 -2.5195 q0.72265625 -0.46875 1.58203125 -0.869140625 t1.8066 -0.68359 t1.9336 -0.44922 t1.9434 -0.16602 q1.7578125 0 3.1640625 0.419921875 t2.3828 1.2988 t1.5039 2.2363 t0.52734 3.252 l-0.019531 10.117 l2.2461 0 l0 3.3594 l-5.8789 0 l0 -1.875 z M52.51955 37.5195 q0.72265625 0 1.4453125 -0.17578125 t1.3672 -0.47852 t1.1914 -0.70313 t0.91797 -0.83008 l0.019531 -4.5703 l-4.2188 0 q-1.0546875 0 -1.923828125 0.234375 t-1.5039 0.68359 t-0.98633 1.1133 t-0.35156 1.5234 q0 0.80078125 0.29296875 1.396484375 t0.83008 0.99609 t1.2793 0.60547 t1.6406 0.20508 z M67.26565 19.766 l6.6016 0 l0 16.875 l3.0469 0 l0 3.3594 l-9.6094 0 l0 -3.3594 l2.8906 0 l0 -13.516 l-2.9297 0 l0 -3.3594 z M69.51175 12.597999999999999 q0 -0.5078125 0.205078125 -0.966796875 t0.54688 -0.80078 t0.81055 -0.54688 t0.99609 -0.20508 q0.5078125 0 0.966796875 0.205078125 t0.80078 0.54688 t0.54688 0.80078 t0.20508 0.9668 q0 0.52734375 -0.205078125 0.99609375 t-0.54688 0.83008 t-0.80078 0.56641 t-0.9668 0.20508 q-0.52734375 0 -0.99609375 -0.205078125 t-0.81055 -0.56641 t-0.54688 -0.83008 t-0.20508 -0.99609 z M94.80478125 24.043 l-3.7109 0 l0 -1.25 q-0.64453125 0 -1.318359375 0.244140625 t-1.2598 0.74219 t-1.0254 1.2695 t-0.63477 1.8262 l0 9.7656 l3.4375 0 l0 3.3594 l-10.039 0 l0 -3.3594 l2.793 0 l0.019531 -13.516 l-2.8125 0 l0 -3.3594 l6.4648 0 l0 2.793 q0.3515625 -0.625 0.791015625 -1.162109375 t0.97656 -0.9375 t1.1914 -0.625 t1.416 -0.22461 l1.9141 0 t1.7969 0.039063 l0 4.3945 z M98.84768125 19.766 l6.6016 0 l0 16.875 l3.0469 0 l0 3.3594 l-9.6094 0 l0 -3.3594 l2.8906 0 l0 -13.516 l-2.9297 0 l0 -3.3594 z M101.09378125 12.597999999999999 q0 -0.5078125 0.205078125 -0.966796875 t0.54688 -0.80078 t0.81055 -0.54688 t0.99609 -0.20508 q0.5078125 0 0.966796875 0.205078125 t0.80078 0.54688 t0.54688 0.80078 t0.20508 0.9668 q0 0.52734375 -0.205078125 0.99609375 t-0.54688 0.83008 t-0.80078 0.56641 t-0.9668 0.20508 q-0.52734375 0 -0.99609375 -0.205078125 t-0.81055 -0.56641 t-0.54688 -0.83008 t-0.20508 -0.99609 z M115.2734125 30.351599999999998 q0 0.859375 0.126953125 1.572265625 t0.36133 1.3574 q0.72265625 1.953125 2.314453125 2.939453125 t3.6035 0.98633 q1.58203125 0 3.076171875 -0.439453125 t3.1348 -1.377 l1.4648 2.4805 q-1.9921875 1.3671875 -4.00390625 2.03125 t-4.1797 0.66406 q-2.05078125 0 -3.798828125 -0.68359375 t-3.0078 -2.0313 t-1.9727 -3.3594 t-0.71289 -4.6875 q0 -2.16796875 0.60546875 -4.091796875 t1.8066 -3.3594 t2.9785 -2.2754 t4.1406 -0.83984 q2.28515625 0 3.818359375 0.693359375 t2.5 1.8359 t1.4648 2.6074 t0.69336 2.9883 q0.09765625 0.7421875 0.126953125 1.50390625 t0.029297 1.4844 l-14.57 0 z M120.9568125 22.285 q-1.26953125 0 -2.216796875 0.361328125 t-1.6113 1.0352 t-1.0645 1.6504 t-0.5957 2.1875 l10.488 0 q-0.078125 -1.1328125 -0.361328125 -2.08984375 t-0.86914 -1.6602 t-1.5039 -1.0938 t-2.2656 -0.39063 z M153.14503125 36.6406 l2.4609 0 l-2.3438 -6.7188 l-11.387 0 l-2.2852 6.7188 l3.0469 0 l0 3.3594 l-9.6094 0 l0 -3.3594 l2.5781 0 l9.2188 -26.25 l5.7617 0 l9.1992 26.25 l2.9688 0 l0 3.3594 l-9.6094 0 l0 -3.3594 z M142.98803125 26.68 l9.1406 0 l-4.6094 -13.242 z M176.20121875 23.799 q-0.380859375 -0.576171875 -0.986328125 -0.9375 t-1.3477 -0.52734 t-1.4453 -0.16602 q-0.78125 0 -1.435546875 0.17578125 t-1.123 0.50781 t-0.73242 0.81055 t-0.26367 1.0645 q0 1.015625 0.615234375 1.611328125 t2.0605 1.1035 l3.8867 1.3672 q2.5 0.83984375 3.65234375 2.28515625 t1.1523 3.457 q0 1.34765625 -0.537109375 2.470703125 t-1.5234 1.9141 t-2.373 1.2305 t-3.0859 0.43945 q-2.36328125 0 -3.84765625 -0.76171875 t-2.2852 -2.0117 l-2.0313 0 l0 -3.3594 l4.043 0 q0 0.83984375 0.361328125 1.435546875 t0.95703 0.9668 t1.3477 0.54688 t1.5332 0.17578 q0.76171875 0 1.46484375 -0.185546875 t1.2402 -0.54688 t0.84961 -0.86914 t0.3125 -1.1523 q0 -0.9765625 -0.634765625 -1.66015625 t-2.1582 -1.2305 l-3.8672 -1.4453 q-2.36328125 -0.83984375 -3.505859375 -2.138671875 t-1.1426 -3.252 q0 -1.2890625 0.478515625 -2.3828125 t1.3867 -1.8848 t2.2168 -1.2402 t2.9883 -0.44922 q2.16796875 0 3.6328125 0.60546875 t2.6367 2.0703 l1.8945 0 l0 3.3594 l-4.0039 0 q0 -0.8203125 -0.380859375 -1.396484375 z M190.15625 19.766 l4.7461 0 l0 2.9492 l-4.7852 0 l-0.058594 11.68 q0 1.19140625 0.2734375 1.93359375 t0.87891 1.0254 t1.3672 0.2832 q0.8203125 0 1.4453125 -0.146484375 t1.3672 -0.49805 l0.83984 2.4414 q-0.9375 0.48828125 -1.97265625 0.771484375 t-2.4414 0.2832 q-1.328125 0 -2.314453125 -0.322265625 t-1.6602 -1.084 t-1.0059 -2.041 t-0.33203 -3.1934 l0.058594 -11.133 l-3.2227 0 l0 -2.9492 l3.2617 0 l0 -4.8438 l3.5547 -1.6797 l0 6.5234 z M202.6171625 30.351599999999998 q0 0.859375 0.126953125 1.572265625 t0.36133 1.3574 q0.72265625 1.953125 2.314453125 2.939453125 t3.6035 0.98633 q1.58203125 0 3.076171875 -0.439453125 t3.1348 -1.377 l1.4648 2.4805 q-1.9921875 1.3671875 -4.00390625 2.03125 t-4.1797 0.66406 q-2.05078125 0 -3.798828125 -0.68359375 t-3.0078 -2.0313 t-1.9727 -3.3594 t-0.71289 -4.6875 q0 -2.16796875 0.60546875 -4.091796875 t1.8066 -3.3594 t2.9785 -2.2754 t4.1406 -0.83984 q2.28515625 0 3.818359375 0.693359375 t2.5 1.8359 t1.4648 2.6074 t0.69336 2.9883 q0.09765625 0.7421875 0.126953125 1.50390625 t0.029297 1.4844 l-14.57 0 z M208.3005625 22.285 q-1.26953125 0 -2.216796875 0.361328125 t-1.6113 1.0352 t-1.0645 1.6504 t-0.5957 2.1875 l10.488 0 q-0.078125 -1.1328125 -0.361328125 -2.08984375 t-0.86914 -1.6602 t-1.5039 -1.0938 t-2.2656 -0.39063 z M236.67978125 24.043 l-3.7109 0 l0 -1.25 q-0.64453125 0 -1.318359375 0.244140625 t-1.2598 0.74219 t-1.0254 1.2695 t-0.63477 1.8262 l0 9.7656 l3.4375 0 l0 3.3594 l-10.039 0 l0 -3.3594 l2.793 0 l0.019531 -13.516 l-2.8125 0 l0 -3.3594 l6.4648 0 l0 2.793 q0.3515625 -0.625 0.791015625 -1.162109375 t0.97656 -0.9375 t1.1914 -0.625 t1.416 -0.22461 l1.9141 0 t1.7969 0.039063 l0 4.3945 z M237.87109375 37.6367 q0 -0.5078125 0.205078125 -0.966796875 t0.55664 -0.80078 t0.81055 -0.54688 t0.98633 -0.20508 q0.5078125 0 0.966796875 0.205078125 t0.80078 0.54688 t0.54688 0.80078 t0.20508 0.9668 q0 0.52734375 -0.205078125 0.99609375 t-0.54688 0.83008 t-0.80078 0.56641 t-0.9668 0.20508 q-0.52734375 0 -0.986328125 -0.205078125 t-0.81055 -0.56641 t-0.55664 -0.83008 t-0.20508 -0.99609 z M265.21534375 36.6406 l2.4609 0 l-2.3438 -6.7188 l-11.387 0 l-2.2852 6.7188 l3.0469 0 l0 3.3594 l-9.6094 0 l0 -3.3594 l2.5781 0 l9.2188 -26.25 l5.7617 0 l9.1992 26.25 l2.9688 0 l0 3.3594 l-9.6094 0 l0 -3.3594 z M255.05834375 26.68 l9.1406 0 l-4.6094 -13.242 z M276.81643125 19.766 l6.6016 0 l0 16.875 l3.0469 0 l0 3.3594 l-9.6094 0 l0 -3.3594 l2.8906 0 l0 -13.516 l-2.9297 0 l0 -3.3594 z M279.06253125 12.597999999999999 q0 -0.5078125 0.205078125 -0.966796875 t0.54688 -0.80078 t0.81055 -0.54688 t0.99609 -0.20508 q0.5078125 0 0.966796875 0.205078125 t0.80078 0.54688 t0.54688 0.80078 t0.20508 0.9668 q0 0.52734375 -0.205078125 0.99609375 t-0.54688 0.83008 t-0.80078 0.56641 t-0.9668 0.20508 q-0.52734375 0 -0.99609375 -0.205078125 t-0.81055 -0.56641 t-0.54688 -0.83008 t-0.20508 -0.99609 z"></path></g><g id="SvgjsG1044" featureKey="sloganFeature-0" transform="matrix(1.0566477270102685,0,0,1.0566477270102685,91.67537520211698,37.097155695447846)" fill="#7fa4cf"><path d="M12.66 20 l-10.46 0 l0 -14.92 l2.18 0 l0 12.74 l8.28 0 l0 2.18 z M24.54 14.74 q0 -1.1 -0.6 -1.9 q-0.52 -0.7 -1.46 -1.08 q-0.86 -0.34 -1.9 -0.34 t-1.92 0.36 q-0.94 0.38 -1.46 1.12 q-0.58 0.8 -0.58 1.92 t0.6 1.92 q0.52 0.72 1.46 1.12 q0.88 0.36 1.9 0.36 t1.92 -0.4 q0.92 -0.42 1.46 -1.18 q0.58 -0.82 0.58 -1.9 z M26.700000000000003 14.719999999999999 q0 1.7 -0.9 3.02 q-0.82 1.22 -2.26 1.92 q-1.38 0.66 -2.98 0.66 t-2.98 -0.66 q-1.42 -0.68 -2.24 -1.88 q-0.88 -1.32 -0.88 -3 t0.9 -2.98 q0.82 -1.2 2.26 -1.86 q1.38 -0.64 2.98 -0.64 t2.96 0.6 q1.42 0.64 2.24 1.82 q0.9 1.28 0.9 3 z M40.64 9.64 l-4.58 10.36 l-2.66 0 l-4.5 -10.36 l2.32 0 l3.5 8.26 l3.58 -8.26 l2.34 0 z M45.879999999999995 16.28 l0 1.64 l6.5 0 l0 2.08 l-8.54 0 l0 -10.36 l8.16 0 l0 2.06 l-6.12 0 l0 2.52 q0.62 -0.36 1.5 -0.5 q0.68 -0.1 1.74 -0.1 l1.52 0 l0 2.06 l-1.52 0 q-1.38 0 -2 0.12 q-0.54 0.1 -1.24 0.48 z M64.58 13.58 l-3.82 0 l0 3.76 l-1.86 0 l0 -3.76 l-3.82 0 l0 -1.86 l3.82 0 l0 -3.76 l1.86 0 l0 3.76 l3.82 0 l0 1.86 z M72.64 6.66 l-0.82 -1.84 l2.4 0 l7.18 15.18 l-2.44 0 l-0.98 -2.18 l-4.54 0 q-1.28 0 -2.3 0.24 q-0.9 0.22 -1.5 0.58 q-0.54 0.32 -0.72 0.66 l-0.38 0.7 l-2.36 0 z M74.24000000000001 15.620000000000001 l2.76 0 l-3.26 -6.3 l-3.3 7.14 q0.44 -0.38 1.34 -0.6 q1.02 -0.24 2.46 -0.24 z M86.34 20 l-2.14 0 l0 -14.92 l2.14 0 l0 14.92 z M99.24000000000001 15.379999999999999 l-9.5 0 l0 -1.86 l9.5 0 l0 1.86 z M99.24000000000001 11.78 l-9.5 0 l0 -1.86 l9.5 0 l0 1.86 z M114.24000000000001 15.46 q0 1.46 -0.88 2.6 q-0.86 1.08 -2.37 1.68 t-3.41 0.6 q-1.74 0 -3.38 -0.81 t-2.76 -2.25 l1.56 -1.46 q1.94 2.34 4.58 2.34 q1.16 0 2.12 -0.28 q1.06 -0.32 1.64 -0.9 q0.66 -0.64 0.66 -1.52 q0 -1.06 -0.66 -1.6 q-0.56 -0.46 -1.66 -0.6 q-0.64 -0.08 -2.1 -0.08 q-2.68 0 -4.09 -0.98 t-1.41 -2.88 q0 -1.2 0.71 -2.28 t1.95 -1.72 q1.28 -0.68 2.84 -0.68 q1.76 0 3.18 0.54 q1.52 0.58 2.82 1.82 l-1.36 1.6 q-1.22 -0.98 -2.22 -1.37 t-2.42 -0.39 q-0.82 0 -1.53 0.34 t-1.13 0.91 t-0.42 1.21 q0 1.72 3.18 1.72 q2.54 0 4.02 0.52 q1.4 0.5 2 1.52 q0.54 0.9 0.54 2.4 z M123.60000000000001 16.56 l0.28 0 l-2.02 -3.84 l-2.46 4.74 q0.68 -0.36 1.54 -0.58 q1.24 -0.32 2.66 -0.32 z M120.80000000000001 10.7 l-0.68 -1.3 l2.22 0 l5.6 10.6 l-2.26 0 l-0.82 -1.56 l-1.24 0 q-1.18 0 -2.5 0.28 q-1.12 0.22 -2.04 0.6 q-0.84 0.32 -1.02 0.56 l-0.06 0.12 l-2.16 0 z M138.78 20 l-7.64 0 l0 -10.36 l2.14 0 l0 8.28 l5.5 0 l0 2.08 z M143.82 16.28 l0 1.64 l6.5 0 l0 2.08 l-8.54 0 l0 -10.36 l8.16 0 l0 2.06 l-6.12 0 l0 2.52 q0.62 -0.36 1.5 -0.5 q0.68 -0.1 1.74 -0.1 l1.52 0 l0 2.06 l-1.52 0 q-1.38 0 -2 0.12 q-0.54 0.1 -1.24 0.48 z M162.16 10.6 l-1.38 1.6 q-1.1 -0.9 -3.08 -0.9 q-0.78 0 -1.44 0.34 t-0.66 0.78 q0 0.36 0.14 0.54 q0.18 0.26 0.64 0.36 q0.52 0.14 1.48 0.14 q2.08 0 3.28 0.46 q1.06 0.38 1.48 1.14 q0.34 0.62 0.34 1.58 q0 1.8 -1.5 2.76 q-1.42 0.92 -3.74 0.92 q-1.34 0 -2.59 -0.59 t-2.11 -1.61 l1.48 -1.5 l0.18 0.2 q0.42 0.44 0.68 0.68 q0.46 0.38 0.96 0.58 q0.62 0.24 1.4 0.24 q1.44 0 2.32 -0.44 t0.88 -1.24 q0 -0.68 -0.78 -0.92 q-0.7 -0.22 -2.42 -0.22 q-2 0 -3.06 -0.7 q-1.22 -0.76 -1.22 -2.38 q0 -0.92 0.6 -1.64 q0.56 -0.7 1.54 -1.09 t2.14 -0.39 q1.24 0 2.22 0.26 q1.16 0.3 2.22 1.04 z"></path></g>
			</g>
		</svg>
	