<svg xmlns="http://www.w3.org/2000/svg" width="100" height="100" viewBox="0 0 100 100">
  <g transform="translate(50, 50) scale(0.8)">
    <path d="M28.253,44.949l11.361,4.612c0.18,0.186,0.319,0.364,0.419,0.531c-0.098,0.161-0.233,0.331-0.406,0.51  c-1.852,0.76-6.214,2.555-11.21,4.615C21.709,56.358,13.063,55.739,5,50.169C12.99,44.572,21.564,43.868,28.253,44.949  L28.253,44.949z M13.497,76.581c9.402-0.161,16.575-4.323,21.379-8.94c2.726-4.366,5.342-8.541,7.158-11.469  c0.003-0.065,0.002-0.127,0-0.187c-0.185-0.112-0.433-0.202-0.742-0.265l-12.288,3.059C23.019,61.869,16.623,67.461,13.497,76.581  L13.497,76.581z M38.948,68.039l7.051-8.164c0.349-0.196,0.661-0.322,0.927-0.379c0.112,0.147,0.221,0.326,0.328,0.537  c0.237,3.191,0.543,7.536,0.87,12.121c-1.004,6.705-4.268,14.676-12,20.59C33.142,82.888,35.549,74.105,38.948,68.039L38.948,68.039  z M63.949,92.768c-8.004-5.984-11.32-14.153-12.297-20.947l0.988-11.924c0.12-0.208,0.244-0.378,0.369-0.507  c0.122,0.028,0.254,0.071,0.395,0.129l8.349,9.813C64.791,75.336,66.708,83.586,63.949,92.768L63.949,92.768z M64.106,66.492  c4.758,4.927,12.227,9.619,22.208,9.794c-3.219-9.143-9.739-14.699-15.789-17.738l-12.188-2.933  c-0.124,0.026-0.235,0.056-0.339,0.09c-0.048,0.273-0.033,0.626,0.047,1.047C59.305,58.767,61.574,62.411,64.106,66.492  L64.106,66.492z M95,49.9c-7.885,5.595-16.352,6.397-23.032,5.396c-5.098-2.071-9.697-3.931-11.901-4.816  c-0.142-0.159-0.253-0.311-0.336-0.455c0.079-0.137,0.185-0.281,0.319-0.432l12.034-4.902C78.737,43.68,87.144,44.434,95,49.9  L95,49.9z M70.341,41.568c6.09-3.034,12.7-8.652,15.909-17.947c-9.546,0.171-16.793,4.468-21.59,9.17l-6.897,11.141  c-0.004,0.078-0.004,0.151-0.003,0.221c0.194,0.114,0.455,0.205,0.781,0.267C61.045,43.806,65.462,42.741,70.341,41.568  L70.341,41.568z M63.844,7.232c2.875,9.443,0.81,17.891-2.359,23.936c-3.234,3.798-6.158,7.238-7.82,9.208  c-0.295,0.149-0.561,0.245-0.79,0.288c-0.094-0.119-0.187-0.261-0.277-0.425c-0.14-2.065-0.472-7.104-0.855-12.83  C52.85,20.766,56.189,12.999,63.844,7.232L63.844,7.232z M48.158,27.538l-0.966,12.7c-0.118,0.198-0.238,0.361-0.361,0.486  c-0.12-0.028-0.25-0.071-0.388-0.128c-1.292-1.541-4.601-5.508-8.368-10.012c-2.959-6.013-4.773-14.219-1.977-23.315  C43.774,13.082,47.089,20.893,48.158,27.538L48.158,27.538z M13.659,23.675c3.21,9.246,9.806,14.85,15.889,17.895  c5.43,1.321,10.127,2.467,11.896,2.901c0.137-0.026,0.259-0.059,0.372-0.095c0.048-0.281,0.028-0.646-0.056-1.08l-6.023-9.74  C31.012,28.622,23.593,23.917,13.659,23.675z"
          fill="#856da6"
          style="fill-rule: evenodd; clip-rule: evenodd;"
          transform="translate(-50, -50)"/>
  </g>
</svg>
